<svg width="27" height="27" viewBox="0 0 27 27" fill="none" xmlns="http://www.w3.org/2000/svg">
<g id="Icon_Edit">
<rect x="0.749919" y="0.750651" width="25.8333" height="25.8333" rx="12.9167" fill="white"/>
<rect x="0.749919" y="0.750651" width="25.8333" height="25.8333" rx="12.9167" stroke="#E1E1E1" stroke-width="0.833333"/>
<path id="Vector" d="M7.83252 19.5007H19.4992M7.83252 19.5007V16.5065L15.7576 8.37098L15.7588 8.36971C16.0468 8.07413 16.191 7.92607 16.3572 7.87062C16.5037 7.82177 16.6614 7.82177 16.8079 7.87062C16.974 7.92603 17.1181 8.07392 17.4056 8.36908L18.6742 9.67138C18.963 9.96781 19.1074 10.1161 19.1615 10.287C19.2091 10.4373 19.2091 10.5993 19.1615 10.7496C19.1074 10.9204 18.9632 11.0685 18.6749 11.3645L18.6742 11.3651L10.7492 19.5006L7.83252 19.5007Z" stroke="#767676" stroke-width="1.08333" stroke-linecap="round" stroke-linejoin="round"/>
</g>
</svg>
