<svg width="60" height="60" viewBox="0 0 60 60" fill="none" xmlns="http://www.w3.org/2000/svg">
<g id="Icon_Camera">
<path id="Vector" d="M50 26.25C49.337 26.25 48.7011 26.5134 48.2322 26.9822C47.7634 27.4511 47.5 28.087 47.5 28.75V46.25C47.5 46.913 47.2366 47.5489 46.7678 48.0178C46.2989 48.4866 45.663 48.75 45 48.75H10C9.33696 48.75 8.70107 48.4866 8.23223 48.0178C7.76339 47.5489 7.5 46.913 7.5 46.25V26.25C7.5 25.587 7.76339 24.9511 8.23223 24.4822C8.70107 24.0134 9.33696 23.75 10 23.75H15C15.5452 23.7785 16.0847 23.6277 16.5361 23.3207C16.9875 23.0137 17.3261 22.5675 17.5 22.05L18.85 17.95C19.0177 17.4534 19.3372 17.0222 19.7634 16.7171C20.1896 16.412 20.7009 16.2486 21.225 16.25H35C35.663 16.25 36.2989 15.9866 36.7678 15.5178C37.2366 15.0489 37.5 14.413 37.5 13.75C37.5 13.087 37.2366 12.4511 36.7678 11.9822C36.2989 11.5134 35.663 11.25 35 11.25H21.1C19.5289 11.2529 17.9983 11.7492 16.7244 12.6688C15.4505 13.5883 14.4975 14.8847 14 16.375L13.2 18.875H10C8.01088 18.875 6.10322 19.6652 4.6967 21.0717C3.29018 22.4782 2.5 24.3859 2.5 26.375V46.375C2.5 48.3641 3.29018 50.2718 4.6967 51.6783C6.10322 53.0848 8.01088 53.875 10 53.875H45C46.9891 53.875 48.8968 53.0848 50.3033 51.6783C51.7098 50.2718 52.5 48.3641 52.5 46.375V28.875C52.517 28.5363 52.4648 28.1978 52.3468 27.8799C52.2288 27.562 52.0473 27.2714 51.8135 27.0259C51.5796 26.7803 51.2982 26.5849 50.9865 26.4515C50.6747 26.3181 50.3391 26.2496 50 26.25ZM27.5 23.75C25.5222 23.75 23.5888 24.3365 21.9443 25.4353C20.2998 26.5341 19.0181 28.0959 18.2612 29.9232C17.5043 31.7504 17.3063 33.7611 17.6921 35.7009C18.078 37.6407 19.0304 39.4225 20.4289 40.8211C21.8275 42.2196 23.6093 43.172 25.5491 43.5579C27.4889 43.9437 29.4996 43.7457 31.3268 42.9888C33.1541 42.2319 34.7159 40.9502 35.8147 39.3057C36.9135 37.6612 37.5 35.7278 37.5 33.75C37.5 31.0978 36.4464 28.5543 34.5711 26.6789C32.6957 24.8036 30.1522 23.75 27.5 23.75ZM27.5 38.75C26.5111 38.75 25.5444 38.4568 24.7221 37.9073C23.8999 37.3579 23.259 36.577 22.8806 35.6634C22.5022 34.7498 22.4031 33.7445 22.5961 32.7745C22.789 31.8046 23.2652 30.9137 23.9645 30.2145C24.6637 29.5152 25.5546 29.039 26.5245 28.8461C27.4945 28.6531 28.4998 28.7522 29.4134 29.1306C30.327 29.509 31.1079 30.1499 31.6573 30.9722C32.2068 31.7944 32.5 32.7611 32.5 33.75C32.5 35.0761 31.9732 36.3479 31.0355 37.2855C30.0978 38.2232 28.8261 38.75 27.5 38.75ZM55 11.25H52.5V8.75C52.5 8.08696 52.2366 7.45107 51.7678 6.98223C51.2989 6.51339 50.663 6.25 50 6.25C49.337 6.25 48.7011 6.51339 48.2322 6.98223C47.7634 7.45107 47.5 8.08696 47.5 8.75V11.25H45C44.337 11.25 43.7011 11.5134 43.2322 11.9822C42.7634 12.4511 42.5 13.087 42.5 13.75C42.5 14.413 42.7634 15.0489 43.2322 15.5178C43.7011 15.9866 44.337 16.25 45 16.25H47.5V18.75C47.5 19.413 47.7634 20.0489 48.2322 20.5178C48.7011 20.9866 49.337 21.25 50 21.25C50.663 21.25 51.2989 20.9866 51.7678 20.5178C52.2366 20.0489 52.5 19.413 52.5 18.75V16.25H55C55.663 16.25 56.2989 15.9866 56.7678 15.5178C57.2366 15.0489 57.5 14.413 57.5 13.75C57.5 13.087 57.2366 12.4511 56.7678 11.9822C56.2989 11.5134 55.663 11.25 55 11.25Z" fill="white" fill-opacity="0.8"/>
</g>
</svg>
