<svg width="14" height="14" viewBox="0 0 14 14" fill="none" xmlns="http://www.w3.org/2000/svg">
<g id="Vector 199 (Stroke)">
<path fill-rule="evenodd" clip-rule="evenodd" d="M1.23226 1.52277C2.78663 0.078083 5.20983 0.175679 6.64463 1.74075L7 2.1284L7.35537 1.74075C8.79017 0.175679 11.2134 0.078083 12.7677 1.52277C14.3221 2.96745 14.419 5.40734 12.9842 6.97242L7 13.5L1.01577 6.97242C-0.41903 5.40734 -0.322102 2.96745 1.23226 1.52277Z" fill=""/>
<path d="M6.63144 2.46628L7 2.8683L7.36856 2.46628L7.72393 2.07863C8.9714 0.717903 11.0764 0.633405 12.4273 1.88901C13.7802 3.14643 13.8649 5.27184 12.6157 6.63454L7 12.7601L1.38433 6.63454C0.135061 5.27184 0.219771 3.14643 1.57266 1.88901C2.92359 0.633405 5.0286 0.717903 6.27607 2.07863L6.63144 2.46628Z" stroke="white" stroke-opacity="0.5" stroke-linecap="round"/>
</g>
</svg>
