<svg width="24" height="24" viewBox="0 0 24 24" fill="none" xmlns="http://www.w3.org/2000/svg">
<path d="M11.9961 2.25C6.19996 2.25 1.5 5.97883 1.5 10.5804C1.5 13.5555 3.46358 16.1617 6.42077 17.6413L5.35618 21.4693C5.35618 21.4693 5.33646 21.6478 5.45081 21.7153C5.56515 21.7827 5.70315 21.7311 5.70315 21.7311C6.03436 21.6835 9.52779 19.2122 10.1389 18.7838C10.7422 18.8711 11.3691 18.9147 12.0039 18.9147C17.8 18.9147 22.5 15.1859 22.5 10.5843C22.5 5.9828 17.7922 2.25 11.9961 2.25Z" fill="black"/>
<path d="M6.19182 13.4848C5.85668 13.4848 5.58461 13.223 5.58461 12.9017V9.27996H4.63831C4.31105 9.27996 4.04688 9.01418 4.04688 8.68493C4.04688 8.35568 4.31499 8.0899 4.63831 8.0899H7.74139C8.06865 8.0899 8.33283 8.35568 8.33283 8.68493C8.33283 9.01418 8.06471 9.27996 7.74139 9.27996H6.79509V12.9017C6.79509 13.219 6.51909 13.4848 6.18788 13.4848H6.19182ZM11.5029 13.4769C11.2506 13.4769 11.0574 13.3737 10.9982 13.2071L10.6986 12.4138H8.8533L8.55363 13.2071C8.49449 13.3737 8.30129 13.4769 8.04894 13.4769C7.91488 13.4769 7.78476 13.4491 7.66253 13.3975C7.49693 13.3182 7.33527 13.108 7.52059 12.5328L8.96764 8.69683C9.07016 8.40328 9.38165 8.10181 9.77594 8.09387C10.1702 8.08594 10.4857 8.40328 10.5842 8.69683L12.0313 12.5328C12.2166 13.108 12.0549 13.3261 11.8893 13.3975C11.7711 13.4531 11.637 13.4769 11.5029 13.4769ZM10.3792 11.3348L9.77594 9.60524L9.17267 11.3348H10.3792ZM13.0052 13.3975C12.6898 13.3975 12.4256 13.1476 12.4256 12.8422V8.69683C12.4256 8.35965 12.7016 8.08594 13.0446 8.08594C13.3877 8.08594 13.6637 8.36362 13.6637 8.69683V12.2749H14.9491C15.2645 12.2749 15.5287 12.5248 15.5287 12.8303C15.5287 13.1357 15.2684 13.3856 14.9491 13.3856L13.0052 13.3975ZM15.7613 12.866V8.7008C15.7613 8.36362 16.0373 8.0899 16.3685 8.0899C16.6997 8.0899 16.9757 8.36758 16.9757 8.7008V10.0099L18.6712 8.30411C18.8578 8.11635 19.2106 8.13281 19.4243 8.34775C19.625 8.54965 19.6771 8.89093 19.4676 9.10542L18.0797 10.4938L19.5702 12.4772C19.7704 12.7351 19.7218 13.1368 19.4519 13.3261C19.1857 13.5245 18.7947 13.4584 18.6041 13.2071L17.1847 11.3149L16.9757 11.5252V12.8541C16.9757 13.6456 15.7613 13.6761 15.7613 12.866Z" fill="#FFE812"/>
</svg>
