<svg width="160" height="160" viewBox="0 0 160 160" fill="none" xmlns="http://www.w3.org/2000/svg">
<rect width="160" height="160" fill="black" fill-opacity="0.2"/>
<path d="M100 76.25C99.337 76.25 98.7011 76.5134 98.2322 76.9822C97.7634 77.4511 97.5 78.087 97.5 78.75V96.25C97.5 96.913 97.2366 97.5489 96.7678 98.0178C96.2989 98.4866 95.663 98.75 95 98.75H60C59.337 98.75 58.7011 98.4866 58.2322 98.0178C57.7634 97.5489 57.5 96.913 57.5 96.25V76.25C57.5 75.587 57.7634 74.9511 58.2322 74.4822C58.7011 74.0134 59.337 73.75 60 73.75H65C65.5452 73.7785 66.0847 73.6277 66.5361 73.3207C66.9875 73.0137 67.3261 72.5675 67.5 72.05L68.85 67.95C69.0177 67.4534 69.3372 67.0222 69.7634 66.7171C70.1896 66.412 70.7009 66.2486 71.225 66.25H85C85.663 66.25 86.2989 65.9866 86.7678 65.5178C87.2366 65.0489 87.5 64.413 87.5 63.75C87.5 63.087 87.2366 62.4511 86.7678 61.9822C86.2989 61.5134 85.663 61.25 85 61.25H71.1C69.5289 61.2529 67.9983 61.7492 66.7244 62.6688C65.4505 63.5883 64.4975 64.8847 64 66.375L63.2 68.875H60C58.0109 68.875 56.1032 69.6652 54.6967 71.0717C53.2902 72.4782 52.5 74.3859 52.5 76.375V96.375C52.5 98.3641 53.2902 100.272 54.6967 101.678C56.1032 103.085 58.0109 103.875 60 103.875H95C96.9891 103.875 98.8968 103.085 100.303 101.678C101.71 100.272 102.5 98.3641 102.5 96.375V78.875C102.517 78.5363 102.465 78.1978 102.347 77.8799C102.229 77.562 102.047 77.2714 101.813 77.0259C101.58 76.7803 101.298 76.5849 100.986 76.4515C100.675 76.3181 100.339 76.2496 100 76.25ZM77.5 73.75C75.5222 73.75 73.5888 74.3365 71.9443 75.4353C70.2998 76.5341 69.0181 78.0959 68.2612 79.9232C67.5043 81.7504 67.3063 83.7611 67.6921 85.7009C68.078 87.6407 69.0304 89.4225 70.4289 90.8211C71.8275 92.2196 73.6093 93.172 75.5491 93.5579C77.4889 93.9437 79.4996 93.7457 81.3268 92.9888C83.1541 92.2319 84.7159 90.9502 85.8147 89.3057C86.9135 87.6612 87.5 85.7278 87.5 83.75C87.5 81.0978 86.4464 78.5543 84.5711 76.6789C82.6957 74.8036 80.1522 73.75 77.5 73.75ZM77.5 88.75C76.5111 88.75 75.5444 88.4568 74.7221 87.9073C73.8999 87.3579 73.259 86.577 72.8806 85.6634C72.5022 84.7498 72.4031 83.7445 72.5961 82.7745C72.789 81.8046 73.2652 80.9137 73.9645 80.2145C74.6637 79.5152 75.5546 79.039 76.5245 78.8461C77.4945 78.6531 78.4998 78.7522 79.4134 79.1306C80.327 79.509 81.1079 80.1499 81.6573 80.9722C82.2068 81.7944 82.5 82.7611 82.5 83.75C82.5 85.0761 81.9732 86.3479 81.0355 87.2855C80.0978 88.2232 78.8261 88.75 77.5 88.75ZM105 61.25H102.5V58.75C102.5 58.087 102.237 57.4511 101.768 56.9822C101.299 56.5134 100.663 56.25 100 56.25C99.337 56.25 98.7011 56.5134 98.2322 56.9822C97.7634 57.4511 97.5 58.087 97.5 58.75V61.25H95C94.337 61.25 93.7011 61.5134 93.2322 61.9822C92.7634 62.4511 92.5 63.087 92.5 63.75C92.5 64.413 92.7634 65.0489 93.2322 65.5178C93.7011 65.9866 94.337 66.25 95 66.25H97.5V68.75C97.5 69.413 97.7634 70.0489 98.2322 70.5178C98.7011 70.9866 99.337 71.25 100 71.25C100.663 71.25 101.299 70.9866 101.768 70.5178C102.237 70.0489 102.5 69.413 102.5 68.75V66.25H105C105.663 66.25 106.299 65.9866 106.768 65.5178C107.237 65.0489 107.5 64.413 107.5 63.75C107.5 63.087 107.237 62.4511 106.768 61.9822C106.299 61.5134 105.663 61.25 105 61.25Z" fill="white" fill-opacity="0.8"/>
</svg>
