<svg width="356" height="215" viewBox="0 0 356 215" fill="none" xmlns="http://www.w3.org/2000/svg">
<rect width="356" height="215" fill="black" fill-opacity="0.2"/>
<path d="M198 104.25C197.337 104.25 196.701 104.513 196.232 104.982C195.763 105.451 195.5 106.087 195.5 106.75V124.25C195.5 124.913 195.237 125.549 194.768 126.018C194.299 126.487 193.663 126.75 193 126.75H158C157.337 126.75 156.701 126.487 156.232 126.018C155.763 125.549 155.5 124.913 155.5 124.25V104.25C155.5 103.587 155.763 102.951 156.232 102.482C156.701 102.013 157.337 101.75 158 101.75H163C163.545 101.778 164.085 101.628 164.536 101.321C164.988 101.014 165.326 100.567 165.5 100.05L166.85 95.95C167.018 95.4534 167.337 95.0222 167.763 94.7171C168.19 94.412 168.701 94.2486 169.225 94.25H183C183.663 94.25 184.299 93.9866 184.768 93.5178C185.237 93.0489 185.5 92.413 185.5 91.75C185.5 91.087 185.237 90.4511 184.768 89.9822C184.299 89.5134 183.663 89.25 183 89.25H169.1C167.529 89.2529 165.998 89.7492 164.724 90.6688C163.45 91.5883 162.498 92.8847 162 94.375L161.2 96.875H158C156.011 96.875 154.103 97.6652 152.697 99.0717C151.29 100.478 150.5 102.386 150.5 104.375V124.375C150.5 126.364 151.29 128.272 152.697 129.678C154.103 131.085 156.011 131.875 158 131.875H193C194.989 131.875 196.897 131.085 198.303 129.678C199.71 128.272 200.5 126.364 200.5 124.375V106.875C200.517 106.536 200.465 106.198 200.347 105.88C200.229 105.562 200.047 105.271 199.813 105.026C199.58 104.78 199.298 104.585 198.986 104.452C198.675 104.318 198.339 104.25 198 104.25ZM175.5 101.75C173.522 101.75 171.589 102.336 169.944 103.435C168.3 104.534 167.018 106.096 166.261 107.923C165.504 109.75 165.306 111.761 165.692 113.701C166.078 115.641 167.03 117.423 168.429 118.821C169.827 120.22 171.609 121.172 173.549 121.558C175.489 121.944 177.5 121.746 179.327 120.989C181.154 120.232 182.716 118.95 183.815 117.306C184.914 115.661 185.5 113.728 185.5 111.75C185.5 109.098 184.446 106.554 182.571 104.679C180.696 102.804 178.152 101.75 175.5 101.75ZM175.5 116.75C174.511 116.75 173.544 116.457 172.722 115.907C171.9 115.358 171.259 114.577 170.881 113.663C170.502 112.75 170.403 111.744 170.596 110.775C170.789 109.805 171.265 108.914 171.964 108.214C172.664 107.515 173.555 107.039 174.525 106.846C175.494 106.653 176.5 106.752 177.413 107.131C178.327 107.509 179.108 108.15 179.657 108.972C180.207 109.794 180.5 110.761 180.5 111.75C180.5 113.076 179.973 114.348 179.036 115.286C178.098 116.223 176.826 116.75 175.5 116.75ZM203 89.25H200.5V86.75C200.5 86.087 200.237 85.4511 199.768 84.9822C199.299 84.5134 198.663 84.25 198 84.25C197.337 84.25 196.701 84.5134 196.232 84.9822C195.763 85.4511 195.5 86.087 195.5 86.75V89.25H193C192.337 89.25 191.701 89.5134 191.232 89.9822C190.763 90.4511 190.5 91.087 190.5 91.75C190.5 92.413 190.763 93.0489 191.232 93.5178C191.701 93.9866 192.337 94.25 193 94.25H195.5V96.75C195.5 97.413 195.763 98.0489 196.232 98.5178C196.701 98.9866 197.337 99.25 198 99.25C198.663 99.25 199.299 98.9866 199.768 98.5178C200.237 98.0489 200.5 97.413 200.5 96.75V94.25H203C203.663 94.25 204.299 93.9866 204.768 93.5178C205.237 93.0489 205.5 92.413 205.5 91.75C205.5 91.087 205.237 90.4511 204.768 89.9822C204.299 89.5134 203.663 89.25 203 89.25Z" fill="white" fill-opacity="0.8"/>
</svg>
